<svg width="53mm" height="34mm" viewBox="0 0 53 34" xmlns="http://www.w3.org/2000/svg"><path fill="#231815" d="m1.484 30.551-.304 1.537H.057l1.401-6.395h1.376l1.272 6.395H2.978l-.298-1.537zm1.087-.901-.233-1.387c-.067-.399-.152-1.023-.218-1.455h-.024c-.069.435-.164 1.077-.235 1.458L1.61 29.65h.961"/><path fill="#231815" d="M7.82 25.522v5.24c0 .416.022.927.038 1.326h-.995l-.065-.534h-.024c-.167.33-.531.61-.966.61-.954 0-1.426-1.053-1.426-2.381 0-1.619.705-2.406 1.474-2.406.401 0 .661.197.792.481h.019v-2.336zm-1.153 3.709c0-.085 0-.185-.016-.276-.045-.316-.213-.6-.483-.6-.464 0-.634.669-.634 1.449 0 .897.243 1.409.617 1.409.172 0 .369-.089.477-.465.026-.075.039-.176.039-.293v-1.224"/><path fill="#231815" d="M10.204 32.164c-1.062 0-1.729-.855-1.729-2.38 0-1.666.855-2.407 1.755-2.407 1.048 0 1.706.895 1.706 2.38 0 1.907-1.03 2.407-1.723 2.407zm.021-.884c.44 0 .549-.83.549-1.516 0-.653-.109-1.503-.568-1.503-.486 0-.588.85-.588 1.503 0 .787.129 1.516.598 1.516h.009"/><path fill="#231815" d="M12.584 25.522h1.153v2.416h.019c.227-.357.53-.561.968-.561.869 0 1.305.988 1.305 2.279 0 1.633-.651 2.508-1.494 2.508-.402 0-.67-.18-.91-.631H13.6l-.065.555h-.989c.017-.386.038-.91.038-1.326zm1.153 4.911c0 .115.02.224.046.296.115.388.312.484.469.484.444 0 .625-.566.625-1.469 0-.822-.19-1.389-.631-1.389-.219 0-.402.238-.466.492-.023.08-.043.205-.043.292v1.294"/><path fill="#231815" d="M17.635 30.143c.013.838.454 1.111 1 1.111.348 0 .646-.076.865-.16l.155.83c-.305.131-.778.214-1.23.214-1.238 0-1.912-.845-1.912-2.288 0-1.55.783-2.48 1.806-2.48.989 0 1.538.822 1.538 2.165 0 .307-.014.48-.034.615zm1.161-.815c.006-.65-.184-1.107-.55-1.107-.417 0-.594.611-.608 1.107h1.158"/><path fill="#231815" d="M22.045 25.788c.343-.076.79-.124 1.259-.124.715 0 1.282.115 1.685.489.366.332.534.846.534 1.389 0 .676-.198 1.149-.515 1.499-.39.432-1.024.631-1.548.631-.098 0-.182 0-.269-.006v2.422h-1.153zm1.152 2.934c.068.012.137.015.221.015.641 0 .953-.451.953-1.099 0-.573-.233-1.039-.85-1.039-.125 0-.243.019-.324.048v2.075"/><path fill="#231815" d="M27.453 32.164c-1.062 0-1.729-.855-1.729-2.38 0-1.666.855-2.407 1.755-2.407 1.048 0 1.705.895 1.705 2.38 0 1.907-1.029 2.407-1.722 2.407zm.022-.884c.439 0 .548-.83.548-1.516 0-.653-.109-1.503-.568-1.503-.486 0-.588.85-.588 1.503 0 .787.129 1.516.598 1.516h.01"/><path fill="#231815" d="M29.783 31.03c.179.111.513.244.825.244.333 0 .532-.161.532-.456 0-.261-.137-.423-.55-.674-.731-.421-.94-.89-.94-1.33 0-.82.592-1.437 1.486-1.437.382 0 .682.099.921.22l-.214.849c-.177-.106-.391-.192-.642-.192-.329 0-.485.204-.485.427s.11.351.548.619c.658.38.938.853.938 1.397 0 .948-.672 1.448-1.6 1.448-.378 0-.821-.105-1.031-.266l.212-.849"/><path fill="#231815" d="M34.156 26.269v1.184h.904v.827h-.904v2.224c0 .548.222.686.471.686.12 0 .215-.01.322-.029l.014.904c-.165.047-.413.08-.724.08-.347 0-.653-.083-.869-.293-.243-.237-.374-.585-.374-1.298V28.28h-.549v-.827h.549v-.813l1.16-.371"/><path fill="#231815" d="M35.541 30.885c.25.146.681.252 1.029.252.601 0 .911-.327.911-.786 0-.479-.299-.734-.834-1.086-.812-.505-1.205-1.163-1.205-1.785 0-1.017.681-1.844 1.967-1.844.419 0 .806.119.986.23l-.195.996c-.178-.114-.451-.219-.804-.219-.549 0-.811.348-.811.703 0 .425.216.636.89 1.053.835.515 1.149 1.153 1.149 1.83 0 1.163-.849 1.916-2.058 1.916-.503 0-.993-.132-1.201-.261l.176-.999"/><path fill="#231815" d="M41.525 32.002c-.134.067-.437.143-.787.143-1.147 0-1.901-.813-1.901-2.332 0-1.417.815-2.423 2.079-2.423.285 0 .551.067.673.128l-.16.911c-.101-.037-.26-.091-.472-.091-.622 0-.968.619-.968 1.443 0 .879.365 1.419.959 1.419.182 0 .335-.034.475-.102l.102.904"/><path fill="#231815" d="M41.967 28.815c0-.449-.022-.943-.038-1.362h1.006l.06.686h.032c.195-.485.573-.762.927-.762.115 0 .177.007.246.02v1.151c-.082-.014-.157-.014-.26-.014-.293 0-.648.223-.773.709-.03.106-.05.27-.05.457v2.388h-1.16l.01-3.273"/><path fill="#231815" d="M45.756 32.088h-1.1597v-4.6349h1.1597zm-1.16 0zm.552-5.299c-.365 0-.663-.294-.656-.72-.007-.444.304-.727.673-.727.383 0 .675.283.675.727.007.426-.292.72-.682.72h-.01"/><path fill="#231815" d="M46.571 28.918c0-.583-.022-1.044-.038-1.465h1.006l.059.547h.019c.204-.399.554-.623.975-.623.98 0 1.417 1.066 1.417 2.388 0 1.662-.72 2.399-1.495 2.399-.384 0-.641-.241-.771-.465h-.019v2.211h-1.153zm1.153 1.477c0 .15.02.294.059.39.104.346.296.428.446.428.463 0 .628-.674.628-1.436 0-.895-.218-1.422-.621-1.422-.216 0-.411.218-.463.47-.036.096-.049.217-.049.333v1.237"/><path fill="#231815" d="M52.039 26.269v1.184h.904v.827h-.904v2.224c0 .548.223.686.471.686.12 0 .215-.01.322-.029l.014.904c-.165.047-.413.08-.724.08-.347 0-.652-.083-.869-.293-.243-.237-.373-.585-.373-1.298V28.28h-.55v-.827h.55v-.813l1.159-.371"/><path fill="#e60220" d="M40.579 6.081v.354h-.433v1.819h-.397V6.435h-.433v-.354zm1.762 2.173-.079-1.32c-.007-.148.001-.256-.01-.386h-.013c-.028.136-.046.275-.081.398l-.352 1.27h-.295l-.316-1.309c-.031-.125-.043-.236-.072-.359h-.012c-.011.124-.008.221-.015.348l-.067 1.358h-.384l.181-2.173h.518l.276 1.231c.028.126.044.241.061.365h.011c.026-.139.036-.236.071-.371l.297-1.225h.476l.194 2.173h-.389"/><path fill="#e60220" d="M27.587.09c.649.182.986.339 1.395.626l-7.927 9.228c2.164 1.408 4.435 4.912 3.204 7.769.606-3.873-3.405-6.778-5.762-7.143L27.587.09"/><path fill="#e60220" d="M21.258 21.418c1.472.066 2.939.1 4.476.1 3.312 0 6.49-.16 9.471-.447 1.094-.106 1.983-.962 2.12-2.085.242-1.992.355-4.078.355-6.224s-.113-4.233-.355-6.225c-.137-1.123-1.026-1.979-2.12-2.085a97.9433 97.9433 0 0 0-4.015-.301s-5.683 12.301-6.256 13.568c-.843 1.868-1.999 3.236-3.676 3.699"/><path fill="#e60220" d="M16.263 21.071c-1.103-.181-1.965-.813-2.12-2.085-.242-1.992-.355-4.078-.355-6.224s.113-4.233.355-6.225c.137-1.123 1.026-1.979 2.12-2.085 1.532-.147 3.116-.261 4.745-.338L23.907.872c-.018.005.685-.126 1.299.026L15.097 12.661c2.188-1.043 8.599.583 8.599 4.385 0 4.064-4.412 4.52-7.433 4.025"/></svg>